# xmcd CD database file
#
# Track frame offsets:
#	150
#	37289
#	87466
#	124591
#	171189
#
# Disc length: 3238 seconds
#
# Revision: 0
# Processed by: cddbd v1.5.2PL0 Copyright (c) Steve Scherf et al.
# Submitted via: CDex 1.70beta2
#
DISCID=400ca405
DTITLE=Nicolas Jeandot - Atmosphères
DYEAR=2009
DGENRE=New Age
TTITLE0=Lumières d'Aurore
TTITLE1=Eden
TTITLE2=Perles de Pureté
TTITLE3=Plénitude Océane
TTITLE4=Ultrazen
EXTD=YEAR: 2009
EXTT0=
EXTT1=
EXTT2=
EXTT3=
EXTT4=
PLAYORDER=
